HIERARCHY
ROOT Hips
{
	OFFSET 0.000000 0.000000 0.000000
	CHANNELS 6 Xposition Yposition Zposition Xrotation Yrotation Zrotation
	JOINT C_ctrl
	{
		OFFSET 0.000000 35.040482 -0.000011
		CHANNELS 3 Xrotation Yrotation Zrotation
		JOINT Bip01
		{
			OFFSET -41.537640 41.789009 -0.000007
			CHANNELS 3 Xrotation Yrotation Zrotation
			JOINT Bip01_Pelvis
			{
				OFFSET -2.462887 0.000000 0.000000
				CHANNELS 3 Xrotation Yrotation Zrotation
				JOINT BN_Tail_01
				{
					OFFSET -11.399368 7.351341 -0.000013
					CHANNELS 3 Xrotation Yrotation Zrotation
					JOINT BN_Tail_02
					{
						OFFSET -11.365196 -0.343025 0.000012
						CHANNELS 3 Xrotation Yrotation Zrotation
						JOINT BN_Tail_03
						{
							OFFSET -15.076256 -0.454979 0.000017
							CHANNELS 3 Xrotation Yrotation Zrotation
							JOINT BN_Tail_04
							{
								OFFSET -17.395691 -0.525002 0.000016
								CHANNELS 3 Xrotation Yrotation Zrotation
								JOINT BN_Tail_05
								{
									OFFSET -16.699837 -0.504005 0.000016
									CHANNELS 3 Xrotation Yrotation Zrotation
									End Site
									{
										OFFSET 0.503998 -16.699829 0.000067
									}
								}
							}
						}
					}
				}
				JOINT Bip01_Spine
				{
					OFFSET 8.297798 5.916809 -0.000020
					CHANNELS 3 Xrotation Yrotation Zrotation
					JOINT Bip01_R_Thigh
					{
						OFFSET -8.297779 -5.916794 10.541781
						CHANNELS 3 Xrotation Yrotation Zrotation
						JOINT Bip01_R_Calf
						{
							OFFSET 5.631542 -22.906792 0.862690
							CHANNELS 3 Xrotation Yrotation Zrotation
							JOINT Bip01_R_HorseLink
							{
								OFFSET -16.984341 -19.231926 -3.555767
								CHANNELS 3 Xrotation Yrotation Zrotation
								JOINT Bip01_R_Foot
								{
									OFFSET 4.290367 -24.783146 0.578056
									CHANNELS 3 Xrotation Yrotation Zrotation
									JOINT Bip01_R_Toe0
									{
										OFFSET 3.561211 -5.815116 0.760802
										CHANNELS 3 Xrotation Yrotation Zrotation
										JOINT Bip01_R_Toe0Nub
										{
											OFFSET 16.135469 0.002017 1.534789
											CHANNELS 3 Xrotation Yrotation Zrotation
											End Site
											{
												OFFSET -0.000002 16.208284 -0.000056
											}
										}
									}
								}
							}
						}
					}
					JOINT Bip01_L_Thigh
					{
						OFFSET -8.297813 -5.916832 -10.541739
						CHANNELS 3 Xrotation Yrotation Zrotation
						JOINT Bip01_L_Calf
						{
							OFFSET 5.631535 -22.906792 -0.862625
							CHANNELS 3 Xrotation Yrotation Zrotation
							JOINT Bip01_L_HorseLink
							{
								OFFSET -16.984318 -19.231949 3.555875
								CHANNELS 3 Xrotation Yrotation Zrotation
								JOINT Bip01_L_Foot
								{
									OFFSET 4.290367 -24.783169 -0.577965
									CHANNELS 3 Xrotation Yrotation Zrotation
									JOINT Bip01_L_Toe0
									{
										OFFSET 3.561245 -5.815111 -0.760799
										CHANNELS 3 Xrotation Yrotation Zrotation
										JOINT Bip01_L_Toe0Nub
										{
											OFFSET 6.574303 -0.000005 -1.538561
											CHANNELS 3 Xrotation Yrotation Zrotation
											End Site
											{
												OFFSET 0.000004 -6.751935 0.000023
											}
										}
									}
								}
							}
						}
					}
					JOINT Bip01_Spine1
					{
						OFFSET 20.556803 -4.626213 -0.000025
						CHANNELS 3 Xrotation Yrotation Zrotation
						JOINT Saddle
						{
							OFFSET 17.608810 18.174690 -0.000143
							CHANNELS 3 Xrotation Yrotation Zrotation
							End Site
							{
								OFFSET -0.000063 -0.000061 -22.448387
							}
						}
						JOINT BN_center
						{
							OFFSET 10.743275 -13.417107 -0.172041
							CHANNELS 3 Xrotation Yrotation Zrotation
							End Site
							{
								OFFSET 22.434088 0.553078 -0.579614
							}
						}
						JOINT Bip01_Spine2
						{
							OFFSET 24.765072 -2.054115 -0.000032
							CHANNELS 3 Xrotation Yrotation Zrotation
							JOINT Handle
							{
								OFFSET 63.735676 16.430748 -16.052464
								CHANNELS 3 Xrotation Yrotation Zrotation
								JOINT IK_Chain01
								{
									OFFSET -4.713058 -6.020439 0.185448
									CHANNELS 3 Xrotation Yrotation Zrotation
									End Site
									{
										OFFSET -0.000023 -0.000023 -7.648071
									}
								}
							}
							JOINT BN_hair04_01
							{
								OFFSET 1.987491 16.256981 -2.049672
								CHANNELS 3 Xrotation Yrotation Zrotation
								JOINT BN_hair04_02
								{
									OFFSET -1.318762 -3.831451 -6.174704
									CHANNELS 3 Xrotation Yrotation Zrotation
									JOINT BN_hair04_03
									{
										OFFSET -0.827490 -5.886627 -5.656666
										CHANNELS 3 Xrotation Yrotation Zrotation
										End Site
										{
											OFFSET -2.658262 5.010620 -5.929780
										}
									}
								}
							}
							JOINT Bip01_Neck
							{
								OFFSET 25.574577 9.433014 -0.000084
								CHANNELS 3 Xrotation Yrotation Zrotation
								JOINT Bip01_R_Clavicle
								{
									OFFSET -16.535652 0.011192 6.705692
									CHANNELS 3 Xrotation Yrotation Zrotation
									JOINT Bip01_R_UpperArm
									{
										OFFSET 20.272621 -12.959984 2.510816
										CHANNELS 3 Xrotation Yrotation Zrotation
										JOINT Bip01_R_Forearm
										{
											OFFSET -13.633509 -15.503704 -0.653585
											CHANNELS 3 Xrotation Yrotation Zrotation
											JOINT Bip01_R_Hand
											{
												OFFSET 2.580030 -27.804676 -1.136415
												CHANNELS 3 Xrotation Yrotation Zrotation
												JOINT Bip01_R_Finger0
												{
													OFFSET -0.281744 -19.659061 -0.398649
													CHANNELS 3 Xrotation Yrotation Zrotation
													JOINT Bip01_Xtra02
													{
														OFFSET 4.152210 -5.712314 0.433813
														CHANNELS 3 Xrotation Yrotation Zrotation
														JOINT Bip01_Xtra02Nub
														{
															OFFSET 15.457960 0.041654 0.507982
															CHANNELS 3 Xrotation Yrotation Zrotation
															End Site
															{
																OFFSET -15.421730 -0.157725 -1.163459
															}
														}
													}
													JOINT Bip01_R_Finger0Nub
													{
														OFFSET 8.362326 -9.718440 -0.143142
														CHANNELS 3 Xrotation Yrotation Zrotation
														End Site
														{
															OFFSET -1.213036 -0.198171 9.872291
														}
													}
												}
											}
										}
									}
								}
								JOINT Bip01_L_Clavicle
								{
									OFFSET -16.535673 0.011162 -6.705583
									CHANNELS 3 Xrotation Yrotation Zrotation
									JOINT Bip01_L_UpperArm
									{
										OFFSET 20.272615 -12.959999 -2.510836
										CHANNELS 3 Xrotation Yrotation Zrotation
										JOINT Bip01_L_Forearm
										{
											OFFSET -13.633495 -15.503681 0.653678
											CHANNELS 3 Xrotation Yrotation Zrotation
											JOINT Bip01_L_Hand
											{
												OFFSET 2.579988 -27.804686 1.136487
												CHANNELS 3 Xrotation Yrotation Zrotation
												JOINT Bip01_L_Finger0
												{
													OFFSET -0.281765 -19.659058 0.398696
													CHANNELS 3 Xrotation Yrotation Zrotation
													JOINT Bip01_Xtra01
													{
														OFFSET 4.083549 -5.738758 -0.666714
														CHANNELS 3 Xrotation Yrotation Zrotation
														JOINT Bip01_Xtra01Nub
														{
															OFFSET 6.758158 -0.395525 -0.023239
															CHANNELS 3 Xrotation Yrotation Zrotation
															End Site
															{
																OFFSET 6.764923 -0.254147 -0.029908
															}
														}
													}
													JOINT Bip01_L_Finger0Nub
													{
														OFFSET -0.012636 -9.629153 0.045740
														CHANNELS 3 Xrotation Yrotation Zrotation
														End Site
														{
															OFFSET 0.988407 0.004791 8.293357
														}
													}
												}
											}
										}
									}
								}
								JOINT BN_hair03_01
								{
									OFFSET -5.894140 16.270622 -2.498433
									CHANNELS 3 Xrotation Yrotation Zrotation
									JOINT BN_hair03_02
									{
										OFFSET -0.189278 -7.800507 -6.219162
										CHANNELS 3 Xrotation Yrotation Zrotation
										JOINT BN_hair03_03
										{
											OFFSET 0.612345 -10.844475 -3.370718
											CHANNELS 3 Xrotation Yrotation Zrotation
											End Site
											{
												OFFSET -2.273296 2.862007 -10.769416
											}
										}
									}
								}
								JOINT Bip01_Neck1
								{
									OFFSET 9.383755 11.908699 -0.000007
									CHANNELS 3 Xrotation Yrotation Zrotation
									JOINT BN_hair02_01
									{
										OFFSET 9.126320 18.808022 -1.420810
										CHANNELS 3 Xrotation Yrotation Zrotation
										JOINT BN_hair02_02
										{
											OFFSET 0.393478 -5.181091 -5.248574
											CHANNELS 3 Xrotation Yrotation Zrotation
											JOINT BN_hair02_03
											{
												OFFSET 0.762280 -8.167076 -0.230047
												CHANNELS 3 Xrotation Yrotation Zrotation
												End Site
												{
													OFFSET -0.025837 -1.251419 -8.109770
												}
											}
										}
									}
									JOINT Bip01_Head
									{
										OFFSET 14.266129 10.475403 -0.000008
										CHANNELS 3 Xrotation Yrotation Zrotation
										JOINT BN_Reins_01
										{
											OFFSET 18.547455 -15.740112 -0.000035
											CHANNELS 3 Xrotation Yrotation Zrotation
											JOINT BN_Reins_02
											{
												OFFSET -5.372810 -5.884506 0.000028
												CHANNELS 3 Xrotation Yrotation Zrotation
												JOINT BN_Reins_03
												{
													OFFSET -6.395866 -15.947449 0.000070
													CHANNELS 3 Xrotation Yrotation Zrotation
													JOINT BN_Halter_R_01
													{
														OFFSET -1.234055 -3.096100 7.096737
														CHANNELS 3 Xrotation Yrotation Zrotation
														End Site
														{
															OFFSET 10.514435 -4.176861 -0.000004
														}
													}
													JOINT BN_Halter_L_01
													{
														OFFSET -1.234062 -3.096146 -7.096726
														CHANNELS 3 Xrotation Yrotation Zrotation
														End Site
														{
															OFFSET -10.514435 4.176865 -0.000000
														}
													}
													JOINT BN_Reins_04
													{
														OFFSET -6.737644 -16.971684 0.000074
														CHANNELS 3 Xrotation Yrotation Zrotation
														JOINT BN_Halter_R_02
														{
															OFFSET -4.688869 -11.781956 7.096771
															CHANNELS 3 Xrotation Yrotation Zrotation
															End Site
															{
																OFFSET 14.669624 -5.827511 -0.000006
															}
														}
														JOINT BN_Halter_L_02
														{
															OFFSET -4.688892 -11.782017 -7.096693
															CHANNELS 3 Xrotation Yrotation Zrotation
															End Site
															{
																OFFSET -14.669624 5.827507 -0.000002
															}
														}
														JOINT BN_Reins_05
														{
															OFFSET -6.822578 -16.971161 0.000074
															CHANNELS 3 Xrotation Yrotation Zrotation
															JOINT BN_Reins_06
															{
																OFFSET -6.140354 -15.095148 0.000066
																CHANNELS 3 Xrotation Yrotation Zrotation
																End Site
																{
																	OFFSET -15.095150 6.140352 -0.000002
																}
															}
														}
													}
												}
											}
										}
										JOINT BN_hair01_01
										{
											OFFSET 8.957344 8.870956 0.112121
											CHANNELS 3 Xrotation Yrotation Zrotation
											JOINT BN_hair01_02
											{
												OFFSET 6.002075 -2.962952 -3.121264
												CHANNELS 3 Xrotation Yrotation Zrotation
												End Site
												{
													OFFSET 5.917702 3.813591 -2.232396
												}
											}
										}
										JOINT BN_Eyebrow_R
										{
											OFFSET 11.795959 -0.430496 4.449781
											CHANNELS 3 Xrotation Yrotation Zrotation
											JOINT Bip01_Xtra06Nub
											{
												OFFSET 2.936661 -0.262573 3.246701
												CHANNELS 3 Xrotation Yrotation Zrotation
												End Site
												{
													OFFSET 2.768745 0.208199 3.394807
												}
											}
										}
										JOINT BN_Eyebrow_L
										{
											OFFSET 11.586395 -0.445618 -4.441728
											CHANNELS 3 Xrotation Yrotation Zrotation
											JOINT Bip01_Xtra05Nub
											{
												OFFSET 3.244698 -0.349442 -4.416700
												CHANNELS 3 Xrotation Yrotation Zrotation
												End Site
												{
													OFFSET 3.053162 0.072495 -4.564033
												}
											}
										}
										JOINT Bip01_R_Ear_01
										{
											OFFSET 7.142960 7.567184 4.311657
											CHANNELS 3 Xrotation Yrotation Zrotation
											JOINT Bip01_Xtra04Nub
											{
												OFFSET 9.464531 9.264214 1.682953
												CHANNELS 3 Xrotation Yrotation Zrotation
												End Site
												{
													OFFSET 8.448181 10.159340 1.910823
												}
											}
										}
										JOINT Bip01__L_Ear_01
										{
											OFFSET 7.214943 7.717056 -4.356771
											CHANNELS 3 Xrotation Yrotation Zrotation
											JOINT Bip01_Xtra03Nub
											{
												OFFSET 9.230225 8.944366 -2.322746
												CHANNELS 3 Xrotation Yrotation Zrotation
												End Site
												{
													OFFSET 8.170288 9.841324 -2.643566
												}
											}
										}
										JOINT Bip01_Jaw
										{
											OFFSET 9.196068 -4.110695 -0.000013
											CHANNELS 3 Xrotation Yrotation Zrotation
											JOINT Bip01_Ponytail1Nub
											{
												OFFSET 10.976463 -21.082108 -0.000053
												CHANNELS 3 Xrotation Yrotation Zrotation
												End Site
												{
													OFFSET 11.247093 -20.938980 0.000113
												}
											}
										}
										JOINT Bip01_HeadNub
										{
											OFFSET 29.954575 -18.249489 -0.000063
											CHANNELS 3 Xrotation Yrotation Zrotation
											End Site
											{
												OFFSET -9.198448 -13.366348 0.000168
											}
										}
									}
								}
							}
						}
					}
				}
			}
		}
	}
}
MOTION
Frames: 4
Frame Time: 0.033333
0.000000 0.000000 0.000000 0.000008 0.000000 -0.000000 -0.000000 0.000000 -0.000000 86.621914 -178.337742 -1.876145 0.003485 0.000000 -0.000022 2.814519 -8.015365 5.025859 2.384389 -4.960342 23.717630 -2.624970 6.335807 21.353331 0.287224 -0.751980 11.724110 0.126114 -1.056081 6.768914 -1.273646 -9.946740 10.122143 17.303256 8.125882 5.524912 7.901089 -2.633026 -43.085366 -1.524195 -0.187890 7.782963 -11.595301 -27.115310 -44.524982 -1.250720 -0.064057 5.863945 0.000111 -0.000138 0.000006 11.949979 -1.183959 42.706810 -11.493148 8.021085 -76.004276 1.662468 0.215506 8.496473 13.084017 -26.490711 -34.886366 -0.418712 0.007175 -1.959974 0.006868 -0.001055 0.038948 4.876612 1.245047 -33.983268 0.917531 -0.020779 6.784379 0.083467 -0.095008 0.018197 0.032798 -0.154634 -33.984081 0.000080 -0.000113 -0.000063 -0.000051 -0.014927 0.015041 -0.008334 0.000143 0.012254 -1.062912 0.902477 -0.780493 4.771937 0.053933 -0.716727 5.626788 -6.058333 -36.840746 -8.035981 1.355422 36.410263 -27.362165 -4.774304 -10.775413 2.464068 -2.421501 94.693620 -1.079980 -17.860419 -74.858846 2.427343 -2.251871 -49.876517 -1.002522 -0.004255 -0.069906 -0.802189 0.160590 -0.479854 -0.804185 0.123491 -0.482625 -8.177885 1.488000 36.881205 -3.376599 17.859531 1.843109 -0.160085 0.931526 23.202250 -15.918333 -14.660993 -97.977254 -0.718669 2.617449 -54.134017 2.691531 2.076439 -0.752297 0.028194 0.072026 2.451927 -0.000913 0.100574 2.451954 -0.041478 -0.001070 0.050725 0.670149 0.449803 -1.432041 0.477872 -0.632823 2.385381 7.215639 -11.183577 -8.372036 -0.020446 0.003966 0.021281 7.109806 0.410060 -6.716338 2.751050 -1.573047 -8.361774 3.087614 17.651051 33.972480 -0.000066 0.000340 33.480071 -0.441789 -0.458726 -72.796143 -0.000056 -0.000069 -21.994013 0.000020 -0.000008 -0.026807 0.000001 -0.000018 0.012745 -0.000047 -0.000080 -34.639905 0.000036 0.000017 0.015166 0.000025 -0.000009 0.012720 -0.000066 -0.000106 -24.223469 0.000010 -0.000016 -0.000046 -0.073043 0.030656 0.020249 24.631703 14.433247 -1.288895 0.124815 -0.009495 -0.099907 0.018796 -0.023297 11.778566 -0.105496 -0.005168 -0.072487 0.023206 -0.032291 11.716010 0.089417 -0.130614 0.175098 0.050287 0.015073 11.755995 -0.154158 0.027273 -0.044363 0.050155 0.014733 11.743146 0.646533 0.597939 -1.496407 -0.004513 -0.052571 11.750680 0.000070 -0.000032 11.750673 
0.000000 0.000000 0.000000 0.000008 0.000000 -0.000000 -0.000000 0.000000 -0.000000 86.640021 -178.334436 -1.876449 0.003484 -0.000000 -0.000021 3.003438 -9.593954 5.055504 2.199368 -4.575424 23.701745 -3.119187 7.485162 21.412915 0.441635 -1.401631 11.728313 0.088810 -0.804739 6.768504 -1.273645 -9.946740 10.122142 17.326124 8.126133 5.516763 7.899860 -2.631999 -43.077327 -1.524186 -0.187895 7.782965 -11.595105 -27.118423 -44.527639 -1.250719 -0.064050 5.863946 0.000115 -0.000141 0.000004 11.971383 -1.189998 42.708247 -11.493670 8.022763 -76.013080 1.663551 0.215730 8.502073 13.076164 -26.493219 -34.886267 -0.418712 0.007176 -1.959976 0.006869 -0.001057 0.038949 4.490937 0.731380 -33.976069 0.917530 -0.020778 6.784382 0.083456 -0.095008 0.018196 -0.452192 -1.135323 -33.986308 0.000078 -0.000114 -0.000073 -0.000052 -0.014927 0.015039 -0.008333 0.000146 0.012257 -1.023419 0.984677 -0.871687 4.771837 0.245878 -0.950704 6.111439 -7.866000 -36.784257 -9.511929 2.498740 36.585727 -30.317803 -6.139297 -7.866750 2.603564 -2.410393 98.109042 -1.083479 -17.847575 -74.545211 2.427343 -2.251871 -49.876510 -1.002406 -0.004205 -0.069889 -0.802225 0.160590 -0.479856 -0.804185 0.123492 -0.482624 -9.657245 2.632859 37.062519 -3.523842 19.891563 1.490785 -0.112002 0.796534 19.707481 -15.938851 -14.779339 -95.190898 -0.718686 2.617436 -54.134010 2.691555 2.076514 -0.752298 0.028222 0.072027 2.451927 -0.000913 0.100575 2.451954 -0.041475 -0.001071 0.050726 0.786880 0.510247 -1.585344 0.483876 -0.547579 2.119481 9.305051 -14.624873 -7.903902 -0.020458 0.003967 0.021303 7.491988 0.426525 -7.148666 3.097645 -1.621347 -8.616248 1.875335 19.790241 31.423057 -0.000054 0.000335 33.480068 -0.441790 -0.458728 -72.796143 -0.000060 -0.000073 -21.994022 0.000019 -0.000010 -0.026807 0.000000 -0.000018 0.012743 -0.000069 -0.000095 -34.639905 0.000035 0.000016 0.015163 0.000025 -0.000008 0.012720 -0.000057 -0.000083 -24.223469 0.000012 -0.000016 -0.000046 -0.073028 0.030653 0.020250 25.711226 15.038881 -2.225298 0.124823 -0.009509 -0.099903 0.018817 -0.023285 11.778589 -0.105484 -0.005178 -0.072493 0.023212 -0.032285 11.715987 0.089425 -0.130617 0.175101 0.050285 0.015108 11.755993 -0.154149 0.027269 -0.044364 0.050145 0.014768 11.743129 0.646537 0.597937 -1.496410 -0.004491 -0.052594 11.750690 0.000071 -0.000033 11.750673 
0.000000 0.000000 0.000000 0.000008 0.000000 -0.000000 -0.000000 0.000000 -0.000000 86.661427 -178.334709 -1.876728 0.003484 0.000000 -0.000021 3.194052 -11.179128 5.091040 2.002697 -4.162859 23.689714 -3.615876 8.638730 21.478763 0.605418 -2.078588 11.735015 0.052234 -0.558276 6.768288 -1.273649 -9.946737 10.122141 17.348556 8.126412 5.508753 7.898660 -2.630994 -43.069455 -1.524193 -0.187888 7.782962 -11.594900 -27.121474 -44.530241 -1.250721 -0.064042 5.863949 0.000111 -0.000138 0.000006 11.992362 -1.195923 42.709661 -11.494177 8.024394 -76.021658 1.664619 0.215949 8.507594 13.068490 -26.495716 -34.886164 -0.418714 0.007178 -1.959972 0.006865 -0.001056 0.038949 4.043635 0.139183 -33.972825 0.917531 -0.020779 6.784381 0.083442 -0.095008 0.018189 -1.010991 -2.251848 -34.005528 0.000078 -0.000113 -0.000065 -0.000051 -0.014927 0.015037 -0.008353 0.000151 0.012262 -0.936596 1.124654 -1.026683 4.772482 0.433729 -1.180425 6.589899 -9.626278 -36.709057 -10.954735 3.607488 36.787785 -32.179306 -5.900436 -3.672788 2.728534 -2.393295 101.187176 -1.089717 -17.821439 -73.937774 2.427345 -2.251870 -49.876514 -1.002501 -0.004213 -0.069899 -0.802260 0.160589 -0.479858 -0.804184 0.123491 -0.482623 -11.100497 3.740697 37.267520 -3.563325 21.817482 1.067512 -0.079578 0.686838 16.918273 -15.951878 -14.881442 -92.722277 -0.718712 2.617450 -54.133982 2.691531 2.076476 -0.752322 0.028250 0.072027 2.451926 -0.000914 0.100574 2.451954 -0.041492 -0.001072 0.050727 1.008671 0.616586 -1.856460 0.490206 -0.464275 1.858622 11.342882 -17.865728 -7.332991 -0.020476 0.003962 0.021313 8.007344 0.453038 -7.810346 3.437314 -1.670182 -8.865494 0.685201 21.651017 28.912317 -0.000026 0.000324 33.480071 -0.441790 -0.458727 -72.796143 -0.000062 -0.000073 -21.994017 0.000019 -0.000008 -0.026807 0.000003 -0.000014 0.012743 -0.000095 -0.000106 -34.639902 0.000035 0.000014 0.015166 0.000025 -0.000008 0.012721 -0.000047 -0.000054 -24.223466 0.000012 -0.000014 -0.000051 -0.073010 0.030650 0.020260 27.230919 15.821641 -3.650904 0.124855 -0.009524 -0.099899 0.018835 -0.023285 11.778606 -0.105452 -0.005185 -0.072489 0.023224 -0.032278 11.715965 0.089456 -0.130629 0.175105 0.050297 0.015132 11.755997 -0.154115 0.027257 -0.044367 0.050141 0.014799 11.743132 0.646568 0.597925 -1.496402 -0.004462 -0.052606 11.750686 0.000078 -0.000035 11.750673 
0.000000 0.000000 0.000000 0.000008 0.000000 -0.000000 -0.000000 0.000000 -0.000000 86.683044 -178.335023 -1.877028 0.003485 0.000000 -0.000022 3.383330 -12.742069 5.131951 1.789949 -3.717318 23.674631 -4.110590 9.774027 21.555915 0.773365 -2.779689 11.744654 0.015294 -0.309373 6.768192 -1.273651 -9.946737 10.122140 17.371181 8.126692 5.500638 7.897448 -2.629980 -43.061501 -1.524188 -0.187896 7.782962 -11.594678 -27.124553 -44.532844 -1.250720 -0.064025 5.863947 0.000114 -0.000137 0.000008 12.013565 -1.201916 42.711082 -11.494694 8.026051 -76.030374 1.665692 0.216170 8.513129 13.060733 -26.498209 -34.886062 -0.418712 0.007181 -1.959972 0.006867 -0.001056 0.038946 3.521408 -0.549144 -33.976069 0.917530 -0.020779 6.784380 0.083418 -0.094996 0.018193 -1.662318 -3.555246 -34.037978 0.000078 -0.000114 -0.000071 -0.000052 -0.014927 0.015042 -0.008364 0.000139 0.012241 -0.848536 1.265789 -1.183440 4.773877 0.623096 -1.412742 7.052586 -11.310739 -36.624656 -12.342836 4.667528 37.005384 -33.345106 -4.649543 0.728546 2.818489 -2.376709 103.419262 -1.096105 -17.804165 -73.476983 2.427348 -2.251869 -49.876517 -1.002501 -0.004213 -0.069897 -0.802316 0.160589 -0.479856 -0.804184 0.123490 -0.482622 -12.485620 4.798234 37.487763 -3.458267 23.586308 0.549934 -0.061357 0.614617 15.102132 -15.956737 -14.965706 -90.695869 -0.718713 2.617447 -54.133989 2.691547 2.076539 -0.752329 0.028305 0.072027 2.451927 -0.000913 0.100574 2.451956 -0.041497 -0.001074 0.050749 1.248196 0.696819 -2.095432 0.497037 -0.380442 1.595100 13.280143 -20.825851 -6.691465 -0.020478 0.003954 0.021302 8.203663 0.468461 -8.291405 3.780123 -1.721008 -9.116926 -0.444568 23.170474 26.446393 -0.000012 0.000318 33.480068 -0.441789 -0.458730 -72.796143 -0.000066 -0.000079 -21.994017 0.000023 -0.000009 -0.026803 0.000008 -0.000013 0.012745 -0.000105 -0.000114 -34.639902 0.000035 0.000014 0.015163 0.000025 -0.000011 0.012720 -0.000040 -0.000036 -24.223469 0.000010 -0.000017 -0.000048 -0.073001 0.030648 0.020257 27.993122 16.148104 -4.621000 0.124869 -0.009519 -0.099905 0.018862 -0.023280 11.778653 -0.105437 -0.005194 -0.072482 0.023257 -0.032279 11.715917 0.089464 -0.130634 0.175101 0.050308 0.015186 11.756009 -0.154105 0.027252 -0.044364 0.050166 0.014847 11.743122 0.646584 0.597920 -1.496398 -0.004426 -0.052649 11.750689 0.000074 -0.000034 11.750671 
